<svg xmlns="http://www.w3.org/2000/svg" viewBox="0 0 301.37 488.42"><defs><style>.cls-1,.cls-7{fill:#ff4b63;}.cls-2{opacity:0.66;}.cls-3,.cls-8{fill:#25bbff;}.cls-10,.cls-4{fill:#fff;}.cls-5{fill:#0e1b33;}.cls-6{opacity:0.77;font-size:50.25px;fill:#fbff50;letter-spacing:0.02em;}.cls-6,.cls-7,.cls-8{font-family:CenturyGothic, Century Gothic;}.cls-7{opacity:0.71;font-size:52.28px;letter-spacing:0.02em;}.cls-8{opacity:0.38;font-size:49.74px;letter-spacing:0.02em;}.cls-9{letter-spacing:0.02em;}.cls-10{font-size:53.69px;font-family:CenturyGothic-Bold, Century Gothic;font-weight:700;letter-spacing:0.02em;}.cls-11{letter-spacing:0.02em;}.cls-12,.cls-13,.cls-14{fill:none;stroke:#fbff50;stroke-miterlimit:10;}.cls-12{stroke-width:2.75px;}.cls-13{stroke-width:3.76px;}.cls-14{stroke-width:4.22px;}</style></defs><title>dark-bg</title><g id="Layer_2" data-name="Layer 2"><g id="Layer_1-2" data-name="Layer 1"><path class="cls-1" d="M122.26,13.29a18.13,18.13,0,0,1,34.65.13l54.91,167.73a14.58,14.58,0,0,1-14,19L182.1,151.94a18.37,18.37,0,0,0-17.35-12.87H113.92a18.37,18.37,0,0,0-17.35,12.87L80.83,200.18a15.46,15.46,0,0,1-1.76.11,14.12,14.12,0,0,1-13.44-18.54Zm18.17,11.84a2.94,2.94,0,0,0-5.67,0l-27.4,90.64h60.36Z" transform="translate(0 -0.57)"/><path class="cls-1" d="M134.76,25.13a2.94,2.94,0,0,1,5.67,0l27.29,90.64H107.36Z" transform="translate(0 -0.57)"/><rect class="cls-1" x="18.78" y="247.9" width="107.45" height="19.54" rx="4.36" ry="4.36" transform="translate(-185.17 329.6) rotate(-90)"/><rect class="cls-1" x="85" y="248.98" width="107.45" height="17.37" rx="3.88" ry="3.88" transform="translate(-118.95 395.82) rotate(-90)"/><rect class="cls-1" x="150.13" y="248.98" width="107.45" height="17.37" rx="3.88" ry="3.88" transform="translate(-53.81 460.95) rotate(-90)"/><rect class="cls-1" x="132.13" y="230.98" width="11.02" height="149.81" rx="1.77" ry="1.77" transform="translate(-168.25 442.95) rotate(-90)"/><path class="cls-1" d="M62.73,292.66" transform="translate(0 -0.57)"/><path class="cls-1" d="M62.73,201.7" transform="translate(0 -0.57)"/><g class="cls-2"><path class="cls-3" d="M112.75,17.76a18.87,18.87,0,0,1,35.73.13l56.61,167.73c3.16,9.38-4.14,19-14.42,19l-16.23-48.24a18.89,18.89,0,0,0-17.91-12.87H104.15a18.93,18.93,0,0,0-17.91,12.87L70,204.66a16.42,16.42,0,0,1-1.81.11c-9.78,0-17-9.29-13.86-18.54ZM131.48,29.6a3.06,3.06,0,0,0-5.84,0L97.39,120.24H159.6Z" transform="translate(0 -0.57)"/><path class="cls-3" d="M125.64,29.6a3.06,3.06,0,0,1,5.84,0l28.12,90.64H97.39Z" transform="translate(0 -0.57)"/><rect class="cls-3" x="7.71" y="252.07" width="107.45" height="20.15" rx="4.5" ry="4.5" transform="translate(-200.71 323.01) rotate(-90)"/><rect class="cls-3" x="75.99" y="253.19" width="107.45" height="17.91" rx="4" ry="4" transform="translate(-132.43 391.29) rotate(-90)"/><rect class="cls-3" x="143.15" y="253.19" width="107.45" height="17.91" rx="4" ry="4" transform="translate(-65.27 458.45) rotate(-90)"/><rect class="cls-3" x="123.09" y="233.13" width="11.02" height="154.46" rx="1.77" ry="1.77" transform="translate(-181.76 438.39) rotate(-90)"/><path class="cls-3" d="M51.37,297.14" transform="translate(0 -0.57)"/><path class="cls-3" d="M51.37,206.18" transform="translate(0 -0.57)"/></g><path class="cls-4" d="M117.22,13.29a18.87,18.87,0,0,1,35.73.13l56.61,167.73c3.16,9.38-4.14,19-14.42,19l-16.23-48.24A18.89,18.89,0,0,0,161,139.07H108.63a18.93,18.93,0,0,0-17.91,12.87L74.51,200.18a16.42,16.42,0,0,1-1.81.11c-9.78,0-17-9.29-13.86-18.54ZM136,25.13a3.06,3.06,0,0,0-5.84,0l-28.25,90.64h62.21Z" transform="translate(0 -0.57)"/><path class="cls-5" d="M130.12,25.13a3.06,3.06,0,0,1,5.84,0l28.12,90.64H101.87Z" transform="translate(0 -0.57)"/><rect class="cls-4" x="12.19" y="247.6" width="107.45" height="20.15" rx="4.5" ry="4.5" transform="translate(-191.75 323.01) rotate(-90)"/><rect class="cls-4" x="80.47" y="248.71" width="107.45" height="17.91" rx="4" ry="4" transform="translate(-123.48 391.29) rotate(-90)"/><rect class="cls-4" x="147.62" y="248.71" width="107.45" height="17.91" rx="4" ry="4" transform="translate(-56.32 458.45) rotate(-90)"/><rect class="cls-4" x="127.56" y="228.65" width="11.02" height="154.46" rx="1.77" ry="1.77" transform="translate(-172.81 438.39) rotate(-90)"/><path class="cls-4" d="M55.84,292.66" transform="translate(0 -0.57)"/><path class="cls-4" d="M55.84,201.7" transform="translate(0 -0.57)"/><text class="cls-6" transform="translate(4.66 405.64) rotate(0.11)">EDUCATED <tspan x="52.8" y="60.3">ASIANS</tspan></text><text class="cls-7" transform="translate(3.98 409.09) rotate(0.11)">EDUCATED <tspan x="54.93" y="62.74">ASIANS</tspan></text><text class="cls-8" transform="translate(12.74 406.43) rotate(0.11)">EDUCATED <tspan class="cls-9"><tspan x="52.26" y="59.69">ASIANS</tspan></tspan></text><text class="cls-10" transform="translate(0.15 403.58) rotate(0.11)">EDUCATED <tspan class="cls-11"><tspan x="49.2" y="64.43">ASIANS</tspan></tspan></text><line class="cls-12" x1="124.32" y1="24.04" x2="158.35" y2="58.06"/><line class="cls-13" x1="118.83" y1="37.78" x2="165.44" y2="84.39"/><line class="cls-14" x1="116.08" y1="51.51" x2="168.5" y2="103.62"/><line class="cls-14" x1="110.59" y1="65.25" x2="163" y2="117.36"/><line class="cls-14" x1="105.51" y1="84.39" x2="146.3" y2="121.57"/><line class="cls-14" x1="98.93" y1="99.34" x2="124.32" y2="121.57"/></g></g></svg>