<svg xmlns="http://www.w3.org/2000/svg" viewBox="0 0 145.5 219.67"><defs><style>.cls-1,.cls-6,.cls-7,.cls-8{opacity:0.53;}.cls-2,.cls-7{fill:#ff4b63;}.cls-3,.cls-8{fill:#25bbff;}.cls-4,.cls-9{fill:#0e1b33;}.cls-5{fill:#fff;}.cls-6,.cls-7,.cls-8,.cls-9{font-size:23.98px;font-family:CenturyGothic, Century Gothic;letter-spacing:0.02em;}.cls-6{fill:#fbff50;}.cls-10,.cls-11,.cls-12{fill:none;stroke:#fbff50;stroke-miterlimit:10;}.cls-11{stroke-width:1.37px;}.cls-12{stroke-width:1.54px;}</style></defs><title>lightbg</title><g id="Layer_2" data-name="Layer 2"><g id="Layer_1-2" data-name="Layer 1"><g class="cls-1"><path class="cls-2" d="M61.68,5.94A8.1,8.1,0,0,1,77.16,6l24.53,74.93a6.52,6.52,0,0,1-6.25,8.5l-7-21.55a8.21,8.21,0,0,0-7.76-5.75H58a8.23,8.23,0,0,0-7.76,5.75l-7,21.55a6.91,6.91,0,0,1-.79,0,6.31,6.31,0,0,1-6-8.28Zm8.12,5.29a1.31,1.31,0,0,0-2.53,0L55,51.72H82Z" transform="translate(0 -0.26)"/><path class="cls-2" d="M67.27,11.23a1.31,1.31,0,0,1,2.53,0L82,51.72H55Z" transform="translate(0 -0.26)"/><rect class="cls-2" x="15.45" y="110.74" width="48" height="8.73" rx="4.36" ry="4.36" transform="translate(-75.65 154.3) rotate(-90)"/><rect class="cls-2" x="45.03" y="111.23" width="48" height="7.76" rx="3.88" ry="3.88" transform="translate(-46.07 183.88) rotate(-90)"/><rect class="cls-2" x="74.13" y="111.23" width="48" height="7.76" rx="3.88" ry="3.88" transform="translate(-16.97 212.98) rotate(-90)"/><rect class="cls-2" x="66.09" y="103.18" width="4.92" height="66.92" rx="1.77" ry="1.77" transform="translate(-68.1 204.94) rotate(-90)"/><path class="cls-2" d="M35.09,130.74" transform="translate(0 -0.26)"/><path class="cls-2" d="M35.09,90.11" transform="translate(0 -0.26)"/></g><g class="cls-1"><path class="cls-3" d="M57.43,7.94a8.43,8.43,0,0,1,16,.06L98.68,82.93a6.55,6.55,0,0,1-6.44,8.5L85,69.88a8.44,8.44,0,0,0-8-5.75H53.59a8.46,8.46,0,0,0-8,5.75L38.35,91.43a7.34,7.34,0,0,1-.81,0,6.34,6.34,0,0,1-6.19-8.28Zm8.37,5.29a1.37,1.37,0,0,0-2.61,0L50.57,53.72H78.36Z" transform="translate(0 -0.26)"/><path class="cls-3" d="M63.19,13.23a1.37,1.37,0,0,1,2.61,0L78.36,53.72H50.57Z" transform="translate(0 -0.26)"/><rect class="cls-3" x="10.51" y="112.61" width="48" height="9" rx="4.5" ry="4.5" transform="translate(-82.59 151.36) rotate(-90)"/><rect class="cls-3" x="41.01" y="113.11" width="48" height="8" rx="4" ry="4" transform="translate(-52.09 181.86) rotate(-90)"/><rect class="cls-3" x="71.01" y="113.11" width="48" height="8" rx="4" ry="4" transform="translate(-22.09 211.86) rotate(-90)"/><rect class="cls-3" x="62.05" y="104.14" width="4.92" height="69" rx="1.77" ry="1.77" transform="translate(-74.13 202.9) rotate(-90)"/><path class="cls-3" d="M30,132.74" transform="translate(0 -0.26)"/><path class="cls-3" d="M30,92.11" transform="translate(0 -0.26)"/></g><path class="cls-4" d="M59.43,5.94a8.43,8.43,0,0,1,16,.06l25.29,74.93a6.55,6.55,0,0,1-6.44,8.5L87,67.88a8.44,8.44,0,0,0-8-5.75H55.59a8.46,8.46,0,0,0-8,5.75L40.35,89.43a7.34,7.34,0,0,1-.81,0,6.34,6.34,0,0,1-6.19-8.28Zm8.37,5.29a1.37,1.37,0,0,0-2.61,0L52.57,51.72H80.36Z" transform="translate(0 -0.26)"/><path class="cls-5" d="M65.19,11.23a1.37,1.37,0,0,1,2.61,0L80.36,51.72H52.57Z" transform="translate(0 -0.26)"/><rect class="cls-4" x="12.51" y="110.61" width="48" height="9" rx="4.5" ry="4.5" transform="translate(-78.59 151.36) rotate(-90)"/><rect class="cls-4" x="43.01" y="111.11" width="48" height="8" rx="4" ry="4" transform="translate(-48.09 181.86) rotate(-90)"/><rect class="cls-4" x="73.01" y="111.11" width="48" height="8" rx="4" ry="4" transform="translate(-18.09 211.86) rotate(-90)"/><rect class="cls-4" x="64.05" y="102.14" width="4.92" height="69" rx="1.77" ry="1.77" transform="translate(-70.13 202.9) rotate(-90)"/><path class="cls-4" d="M32,130.74" transform="translate(0 -0.26)"/><path class="cls-4" d="M32,90.11" transform="translate(0 -0.26)"/><text class="cls-6" transform="translate(0.07 180.26) rotate(0.11)">EDUCATED <tspan x="25.2" y="28.78">ASIANS</tspan></text><text class="cls-7" transform="translate(5.06 183.27) rotate(0.11)">EDUCATED <tspan x="25.2" y="28.78">ASIANS</tspan></text><text class="cls-8" transform="translate(9.07 180.28) rotate(0.11)">EDUCATED <tspan x="25.2" y="28.78">ASIANS</tspan></text><text class="cls-9" transform="translate(5.07 180.27) rotate(0.11)">EDUCATED <tspan x="25.2" y="28.78">ASIANS</tspan></text><line class="cls-10" x1="63.01" y1="17.96" x2="75.39" y2="30.35"/><line class="cls-11" x1="61.01" y1="22.96" x2="77.98" y2="39.93"/><line class="cls-12" x1="60.01" y1="27.96" x2="79.09" y2="46.93"/><line class="cls-12" x1="58.01" y1="32.96" x2="77.09" y2="51.93"/><line class="cls-12" x1="56.16" y1="39.93" x2="71.01" y2="53.46"/><line class="cls-12" x1="53.77" y1="45.37" x2="63.01" y2="53.46"/></g></g></svg>